<mxfile host="app.diagrams.net" modified="2023-08-03T01:45:31.382Z" agent="Mozilla/5.0 (Macintosh; Intel Mac OS X 10_15_7) AppleWebKit/605.1.15 (KHTML, like Gecko) Version/16.5 Safari/605.1.15" etag="SRtg0FSaDxXr2GgTAjgs" version="21.6.6" type="github">
  <diagram name="Page-1" id="RexE0t5KJpk72uqxKkzB">
    <mxGraphModel dx="1194" dy="831" grid="1" gridSize="10" guides="1" tooltips="1" connect="1" arrows="1" fold="1" page="1" pageScale="1" pageWidth="850" pageHeight="1100" math="0" shadow="0">
      <root>
        <mxCell id="0" />
        <mxCell id="1" parent="0" />
        <mxCell id="ITDcqpuh0zd9whu8jUeQ-25" value="" style="rounded=0;whiteSpace=wrap;html=1;dashed=1;" parent="1" vertex="1">
          <mxGeometry x="360" y="340" width="880" height="270" as="geometry" />
        </mxCell>
        <mxCell id="823Ag8BkQwnhU8hH5zW2-1" value="" style="rounded=0;whiteSpace=wrap;html=1;strokeColor=#808080;" parent="1" vertex="1">
          <mxGeometry x="360" y="630" width="880" height="140" as="geometry" />
        </mxCell>
        <mxCell id="f_iQ6DCHyj7Kh1NXjfoB-13" value="&lt;font size=&quot;5&quot;&gt;应用层&lt;/font&gt;" style="rounded=0;whiteSpace=wrap;html=1;fillColor=#bac8d3;strokeColor=#23445d;" parent="1" vertex="1">
          <mxGeometry x="300" y="145" width="40" height="175" as="geometry" />
        </mxCell>
        <mxCell id="f_iQ6DCHyj7Kh1NXjfoB-41" value="&lt;font size=&quot;5&quot;&gt;依赖层&lt;/font&gt;" style="rounded=0;whiteSpace=wrap;html=1;fillColor=#bac8d3;strokeColor=#23445d;" parent="1" vertex="1">
          <mxGeometry x="300" y="340" width="40" height="270" as="geometry" />
        </mxCell>
        <mxCell id="f_iQ6DCHyj7Kh1NXjfoB-43" value="" style="group" parent="1" vertex="1" connectable="0">
          <mxGeometry x="360" y="145" width="880" height="175" as="geometry" />
        </mxCell>
        <mxCell id="ITDcqpuh0zd9whu8jUeQ-23" value="" style="rounded=0;whiteSpace=wrap;html=1;flipH=0;flipV=1;container=0;strokeColor=#808080;" parent="f_iQ6DCHyj7Kh1NXjfoB-43" vertex="1">
          <mxGeometry width="880" height="175" as="geometry" />
        </mxCell>
        <mxCell id="f_iQ6DCHyj7Kh1NXjfoB-25" value="&lt;font size=&quot;4&quot;&gt;集成待办&lt;/font&gt;" style="rounded=1;whiteSpace=wrap;html=1;fillColor=#1ba1e2;fontColor=#ffffff;strokeColor=#006EAF;" parent="f_iQ6DCHyj7Kh1NXjfoB-43" vertex="1">
          <mxGeometry x="39.40298507462687" y="15" width="157.61194029850748" height="40" as="geometry" />
        </mxCell>
        <mxCell id="f_iQ6DCHyj7Kh1NXjfoB-26" value="&lt;font size=&quot;4&quot;&gt;请假管理&lt;/font&gt;" style="rounded=1;whiteSpace=wrap;html=1;fillColor=#1ba1e2;fontColor=#ffffff;strokeColor=#006EAF;" parent="f_iQ6DCHyj7Kh1NXjfoB-43" vertex="1">
          <mxGeometry x="253.49253731343288" y="15" width="157.61194029850748" height="40" as="geometry" />
        </mxCell>
        <mxCell id="f_iQ6DCHyj7Kh1NXjfoB-27" value="&lt;font size=&quot;4&quot;&gt;考勤管理&lt;/font&gt;" style="rounded=1;whiteSpace=wrap;html=1;fillColor=#1ba1e2;fontColor=#ffffff;strokeColor=#006EAF;" parent="f_iQ6DCHyj7Kh1NXjfoB-43" vertex="1">
          <mxGeometry x="468.89552238805976" y="15" width="157.61194029850748" height="40" as="geometry" />
        </mxCell>
        <mxCell id="f_iQ6DCHyj7Kh1NXjfoB-28" value="&lt;font size=&quot;4&quot;&gt;考核管理&lt;/font&gt;" style="rounded=1;whiteSpace=wrap;html=1;fillColor=#1ba1e2;fontColor=#ffffff;strokeColor=#006EAF;" parent="f_iQ6DCHyj7Kh1NXjfoB-43" vertex="1">
          <mxGeometry x="682.9850746268656" y="15" width="157.61194029850748" height="40" as="geometry" />
        </mxCell>
        <mxCell id="f_iQ6DCHyj7Kh1NXjfoB-33" value="&lt;font size=&quot;4&quot;&gt;奖金管理&lt;/font&gt;" style="rounded=1;whiteSpace=wrap;html=1;fillColor=#1ba1e2;fontColor=#ffffff;strokeColor=#006EAF;" parent="f_iQ6DCHyj7Kh1NXjfoB-43" vertex="1">
          <mxGeometry x="39.40298507462687" y="65" width="157.61194029850748" height="40" as="geometry" />
        </mxCell>
        <mxCell id="f_iQ6DCHyj7Kh1NXjfoB-34" value="&lt;font size=&quot;4&quot;&gt;资产管理&lt;/font&gt;" style="rounded=1;whiteSpace=wrap;html=1;fillColor=#1ba1e2;fontColor=#ffffff;strokeColor=#006EAF;" parent="f_iQ6DCHyj7Kh1NXjfoB-43" vertex="1">
          <mxGeometry x="253.49253731343288" y="65" width="157.61194029850748" height="40" as="geometry" />
        </mxCell>
        <mxCell id="f_iQ6DCHyj7Kh1NXjfoB-35" value="&lt;font style=&quot;font-size: 18px;&quot;&gt;电子表单&lt;/font&gt;" style="rounded=1;whiteSpace=wrap;html=1;fillColor=#1ba1e2;fontColor=#ffffff;strokeColor=#006EAF;" parent="f_iQ6DCHyj7Kh1NXjfoB-43" vertex="1">
          <mxGeometry x="468.89552238805976" y="65" width="157.61194029850748" height="40" as="geometry" />
        </mxCell>
        <mxCell id="f_iQ6DCHyj7Kh1NXjfoB-36" value="&lt;font size=&quot;4&quot;&gt;协同编辑&lt;/font&gt;" style="rounded=1;whiteSpace=wrap;html=1;fillColor=#1ba1e2;fontColor=#ffffff;strokeColor=#006EAF;" parent="f_iQ6DCHyj7Kh1NXjfoB-43" vertex="1">
          <mxGeometry x="682.9850746268656" y="65" width="157.61194029850748" height="40" as="geometry" />
        </mxCell>
        <mxCell id="f_iQ6DCHyj7Kh1NXjfoB-37" value="&lt;font size=&quot;4&quot;&gt;无纸化会议&lt;/font&gt;" style="rounded=1;whiteSpace=wrap;html=1;fillColor=#1ba1e2;fontColor=#ffffff;strokeColor=#006EAF;" parent="f_iQ6DCHyj7Kh1NXjfoB-43" vertex="1">
          <mxGeometry x="39.40298507462687" y="115" width="157.61194029850748" height="40" as="geometry" />
        </mxCell>
        <mxCell id="f_iQ6DCHyj7Kh1NXjfoB-38" value="&lt;font size=&quot;4&quot;&gt;规章制度&lt;/font&gt;" style="rounded=1;whiteSpace=wrap;html=1;fillColor=#1ba1e2;fontColor=#ffffff;strokeColor=#006EAF;" parent="f_iQ6DCHyj7Kh1NXjfoB-43" vertex="1">
          <mxGeometry x="253.49253731343288" y="115" width="157.61194029850748" height="40" as="geometry" />
        </mxCell>
        <mxCell id="f_iQ6DCHyj7Kh1NXjfoB-39" value="&lt;font size=&quot;4&quot;&gt;文件共享&lt;/font&gt;" style="rounded=1;whiteSpace=wrap;html=1;fillColor=#1ba1e2;fontColor=#ffffff;strokeColor=#006EAF;" parent="f_iQ6DCHyj7Kh1NXjfoB-43" vertex="1">
          <mxGeometry x="468.89552238805976" y="115" width="157.61194029850748" height="40" as="geometry" />
        </mxCell>
        <mxCell id="f_iQ6DCHyj7Kh1NXjfoB-40" value="&lt;font size=&quot;4&quot;&gt;More...&lt;/font&gt;" style="rounded=1;whiteSpace=wrap;html=1;fillColor=#1ba1e2;fontColor=#ffffff;strokeColor=#006EAF;" parent="f_iQ6DCHyj7Kh1NXjfoB-43" vertex="1">
          <mxGeometry x="682.9850746268656" y="115" width="157.61194029850748" height="40" as="geometry" />
        </mxCell>
        <mxCell id="f_iQ6DCHyj7Kh1NXjfoB-2" value="&lt;font size=&quot;5&quot;&gt;用户层&lt;/font&gt;" style="rounded=0;whiteSpace=wrap;html=1;fillColor=#bac8d3;strokeColor=#23445d;" parent="1" vertex="1">
          <mxGeometry x="300" y="20" width="40" height="110" as="geometry" />
        </mxCell>
        <mxCell id="f_iQ6DCHyj7Kh1NXjfoB-44" value="" style="group" parent="1" vertex="1" connectable="0">
          <mxGeometry x="360" y="20" width="880" height="110" as="geometry" />
        </mxCell>
        <mxCell id="823Ag8BkQwnhU8hH5zW2-2" value="" style="rounded=0;whiteSpace=wrap;html=1;strokeColor=#808080;" parent="f_iQ6DCHyj7Kh1NXjfoB-44" vertex="1">
          <mxGeometry width="880" height="110" as="geometry" />
        </mxCell>
        <mxCell id="f_iQ6DCHyj7Kh1NXjfoB-7" value="&lt;font size=&quot;4&quot;&gt;PC&lt;/font&gt;" style="rounded=1;whiteSpace=wrap;html=1;fillColor=#60a917;fontColor=#ffffff;strokeColor=#2D7600;" parent="f_iQ6DCHyj7Kh1NXjfoB-44" vertex="1">
          <mxGeometry x="39.40298507462687" y="13.75" width="157.61194029850748" height="36.666666666666664" as="geometry" />
        </mxCell>
        <mxCell id="f_iQ6DCHyj7Kh1NXjfoB-8" value="&lt;font size=&quot;4&quot;&gt;Mobile&lt;/font&gt;" style="rounded=1;whiteSpace=wrap;html=1;fillColor=#60a917;fontColor=#ffffff;strokeColor=#2D7600;" parent="f_iQ6DCHyj7Kh1NXjfoB-44" vertex="1">
          <mxGeometry x="361.1940298507463" y="13.75" width="157.61194029850748" height="36.666666666666664" as="geometry" />
        </mxCell>
        <mxCell id="f_iQ6DCHyj7Kh1NXjfoB-9" value="&lt;font size=&quot;4&quot;&gt;Pad&lt;/font&gt;" style="rounded=1;whiteSpace=wrap;html=1;fillColor=#60a917;fontColor=#ffffff;strokeColor=#2D7600;" parent="f_iQ6DCHyj7Kh1NXjfoB-44" vertex="1">
          <mxGeometry x="682.9850746268656" y="13.75" width="157.61194029850748" height="36.666666666666664" as="geometry" />
        </mxCell>
        <mxCell id="f_iQ6DCHyj7Kh1NXjfoB-11" value="&lt;font size=&quot;4&quot;&gt;集成视图(自研应用 / 低代码应用 / BI应用等)&lt;/font&gt;" style="rounded=1;whiteSpace=wrap;html=1;fillColor=#008a00;fontColor=#ffffff;strokeColor=#005700;" parent="f_iQ6DCHyj7Kh1NXjfoB-44" vertex="1">
          <mxGeometry x="39.40298507462687" y="64.16666666666666" width="801.1940298507462" height="36.666666666666664" as="geometry" />
        </mxCell>
        <mxCell id="f_iQ6DCHyj7Kh1NXjfoB-52" value="&lt;font size=&quot;4&quot;&gt;基本模块&lt;/font&gt;" style="rounded=1;whiteSpace=wrap;html=1;fillColor=#e3c800;strokeColor=#B09500;fontColor=#000000;" parent="1" vertex="1">
          <mxGeometry x="380" y="390" width="110" height="40" as="geometry" />
        </mxCell>
        <mxCell id="f_iQ6DCHyj7Kh1NXjfoB-56" value="&lt;font size=&quot;4&quot;&gt;文件服务&lt;/font&gt;" style="rounded=1;whiteSpace=wrap;html=1;fillColor=#f0a30a;strokeColor=#BD7000;fontColor=#000000;" parent="1" vertex="1">
          <mxGeometry x="810" y="390" width="110" height="40" as="geometry" />
        </mxCell>
        <mxCell id="f_iQ6DCHyj7Kh1NXjfoB-57" value="&lt;font size=&quot;4&quot;&gt;消息服务&lt;/font&gt;" style="rounded=1;whiteSpace=wrap;html=1;fillColor=#f0a30a;strokeColor=#BD7000;fontColor=#000000;" parent="1" vertex="1">
          <mxGeometry x="680" y="390" width="110" height="40" as="geometry" />
        </mxCell>
        <mxCell id="f_iQ6DCHyj7Kh1NXjfoB-60" value="&lt;font size=&quot;4&quot;&gt;BI&lt;/font&gt;" style="rounded=1;whiteSpace=wrap;html=1;fillColor=#fa6800;fontColor=#000000;strokeColor=#C73500;" parent="1" vertex="1">
          <mxGeometry x="1110" y="390" width="110" height="40" as="geometry" />
        </mxCell>
        <mxCell id="f_iQ6DCHyj7Kh1NXjfoB-61" value="&lt;font size=&quot;4&quot;&gt;低代码&lt;/font&gt;" style="rounded=1;whiteSpace=wrap;html=1;fillColor=#fa6800;fontColor=#000000;strokeColor=#C73500;" parent="1" vertex="1">
          <mxGeometry x="980" y="390" width="110" height="40" as="geometry" />
        </mxCell>
        <mxCell id="f_iQ6DCHyj7Kh1NXjfoB-62" value="&lt;font size=&quot;4&quot;&gt;More...&lt;/font&gt;" style="rounded=1;whiteSpace=wrap;html=1;fillColor=#e3c800;strokeColor=#B09500;fontColor=#000000;" parent="1" vertex="1">
          <mxGeometry x="510" y="450" width="110" height="40" as="geometry" />
        </mxCell>
        <mxCell id="f_iQ6DCHyj7Kh1NXjfoB-63" value="&lt;font size=&quot;4&quot;&gt;履历模块&lt;/font&gt;" style="rounded=1;whiteSpace=wrap;html=1;fillColor=#e3c800;strokeColor=#B09500;fontColor=#000000;" parent="1" vertex="1">
          <mxGeometry x="380" y="450" width="110" height="40" as="geometry" />
        </mxCell>
        <mxCell id="f_iQ6DCHyj7Kh1NXjfoB-72" value="&lt;font size=&quot;4&quot;&gt;More...&lt;/font&gt;" style="rounded=1;whiteSpace=wrap;html=1;fillColor=#fa6800;fontColor=#000000;strokeColor=#C73500;" parent="1" vertex="1">
          <mxGeometry x="1110" y="450" width="110" height="40" as="geometry" />
        </mxCell>
        <mxCell id="f_iQ6DCHyj7Kh1NXjfoB-73" value="&lt;font size=&quot;4&quot;&gt;WPS&lt;/font&gt;" style="rounded=1;whiteSpace=wrap;html=1;fillColor=#fa6800;fontColor=#000000;strokeColor=#C73500;" parent="1" vertex="1">
          <mxGeometry x="980" y="450" width="110" height="40" as="geometry" />
        </mxCell>
        <mxCell id="f_iQ6DCHyj7Kh1NXjfoB-45" value="&lt;font style=&quot;font-size: 18px;&quot;&gt;人员数据中台&lt;/font&gt;" style="swimlane;whiteSpace=wrap;html=1;startSize=23;strokeColor=#808080;" parent="1" vertex="1">
          <mxGeometry x="370" y="350" width="260" height="160" as="geometry">
            <mxRectangle x="370" y="350" width="150" height="30" as="alternateBounds" />
          </mxGeometry>
        </mxCell>
        <mxCell id="f_iQ6DCHyj7Kh1NXjfoB-53" value="&lt;font size=&quot;4&quot;&gt;工作模块&lt;/font&gt;" style="rounded=1;whiteSpace=wrap;html=1;fillColor=#e3c800;strokeColor=#B09500;fontColor=#000000;" parent="f_iQ6DCHyj7Kh1NXjfoB-45" vertex="1">
          <mxGeometry x="140" y="40" width="110" height="40" as="geometry" />
        </mxCell>
        <mxCell id="f_iQ6DCHyj7Kh1NXjfoB-50" value="&lt;font size=&quot;4&quot;&gt;统一研发平台&lt;/font&gt;" style="swimlane;whiteSpace=wrap;html=1;startSize=23;strokeColor=#808080;" parent="1" vertex="1">
          <mxGeometry x="670" y="350" width="260" height="160" as="geometry">
            <mxRectangle x="370" y="350" width="150" height="30" as="alternateBounds" />
          </mxGeometry>
        </mxCell>
        <mxCell id="f_iQ6DCHyj7Kh1NXjfoB-68" value="&lt;font size=&quot;4&quot;&gt;More...&lt;/font&gt;" style="rounded=1;whiteSpace=wrap;html=1;fillColor=#f0a30a;strokeColor=#BD7000;fontColor=#000000;" parent="f_iQ6DCHyj7Kh1NXjfoB-50" vertex="1">
          <mxGeometry x="140" y="100" width="110" height="40" as="geometry" />
        </mxCell>
        <mxCell id="f_iQ6DCHyj7Kh1NXjfoB-69" value="&lt;font size=&quot;4&quot;&gt;BPM&lt;/font&gt;" style="rounded=1;whiteSpace=wrap;html=1;fillColor=#f0a30a;strokeColor=#BD7000;fontColor=#000000;" parent="f_iQ6DCHyj7Kh1NXjfoB-50" vertex="1">
          <mxGeometry x="10" y="100" width="110" height="40" as="geometry" />
        </mxCell>
        <mxCell id="f_iQ6DCHyj7Kh1NXjfoB-51" value="&lt;font size=&quot;4&quot;&gt;第三方平台&lt;/font&gt;" style="swimlane;whiteSpace=wrap;html=1;startSize=23;strokeColor=#808080;" parent="1" vertex="1">
          <mxGeometry x="970" y="350" width="260" height="160" as="geometry">
            <mxRectangle x="370" y="350" width="150" height="30" as="alternateBounds" />
          </mxGeometry>
        </mxCell>
        <mxCell id="f_iQ6DCHyj7Kh1NXjfoB-77" value="&lt;font size=&quot;5&quot;&gt;数据层&lt;/font&gt;" style="rounded=0;whiteSpace=wrap;html=1;fillColor=#bac8d3;strokeColor=#23445d;" parent="1" vertex="1">
          <mxGeometry x="300" y="630" width="40" height="140" as="geometry" />
        </mxCell>
        <mxCell id="f_iQ6DCHyj7Kh1NXjfoB-80" value="&lt;font style=&quot;font-size: 18px;&quot;&gt;中间件&lt;/font&gt;" style="swimlane;whiteSpace=wrap;html=1;strokeColor=#808080;" parent="1" vertex="1">
          <mxGeometry x="370" y="520" width="860" height="80" as="geometry" />
        </mxCell>
        <mxCell id="f_iQ6DCHyj7Kh1NXjfoB-81" value="&lt;font size=&quot;4&quot;&gt;数据存储&lt;/font&gt;" style="rounded=1;whiteSpace=wrap;html=1;fillColor=#a0522d;fontColor=#ffffff;strokeColor=#6D1F00;" parent="1" vertex="1">
          <mxGeometry x="380.0029850746269" y="550" width="157.61194029850748" height="40" as="geometry" />
        </mxCell>
        <mxCell id="f_iQ6DCHyj7Kh1NXjfoB-82" value="&lt;font size=&quot;4&quot;&gt;分布式缓存&lt;/font&gt;" style="rounded=1;whiteSpace=wrap;html=1;fillColor=#a0522d;fontColor=#ffffff;strokeColor=#6D1F00;" parent="1" vertex="1">
          <mxGeometry x="607" y="550" width="157.61194029850748" height="40" as="geometry" />
        </mxCell>
        <mxCell id="f_iQ6DCHyj7Kh1NXjfoB-85" value="&lt;font size=&quot;4&quot;&gt;消息队列&lt;/font&gt;" style="rounded=1;whiteSpace=wrap;html=1;fillColor=#a0522d;fontColor=#ffffff;strokeColor=#6D1F00;" parent="1" vertex="1">
          <mxGeometry x="835" y="550" width="157.61194029850748" height="40" as="geometry" />
        </mxCell>
        <mxCell id="f_iQ6DCHyj7Kh1NXjfoB-86" value="&lt;font size=&quot;4&quot;&gt;文件存储&lt;/font&gt;" style="rounded=1;whiteSpace=wrap;html=1;fillColor=#a0522d;fontColor=#ffffff;strokeColor=#6D1F00;" parent="1" vertex="1">
          <mxGeometry x="1062.392985074627" y="550" width="157.61194029850748" height="40" as="geometry" />
        </mxCell>
        <mxCell id="f_iQ6DCHyj7Kh1NXjfoB-89" value="&lt;font style=&quot;font-size: 18px;&quot;&gt;主数据&lt;/font&gt;" style="shape=datastore;whiteSpace=wrap;html=1;fillColor=#6d8764;fontColor=#ffffff;strokeColor=#3A5431;" parent="1" vertex="1">
          <mxGeometry x="391.25" y="650" width="95" height="100" as="geometry" />
        </mxCell>
        <mxCell id="f_iQ6DCHyj7Kh1NXjfoB-90" value="&lt;font size=&quot;4&quot;&gt;应用数据&lt;/font&gt;" style="shape=datastore;whiteSpace=wrap;html=1;fillColor=#6d8764;fontColor=#ffffff;strokeColor=#3A5431;" parent="1" vertex="1">
          <mxGeometry x="572.25" y="650" width="95" height="100" as="geometry" />
        </mxCell>
        <mxCell id="f_iQ6DCHyj7Kh1NXjfoB-91" value="&lt;font size=&quot;4&quot;&gt;流程数据&lt;/font&gt;" style="shape=datastore;whiteSpace=wrap;html=1;fillColor=#6d8764;fontColor=#ffffff;strokeColor=#3A5431;" parent="1" vertex="1">
          <mxGeometry x="752.25" y="650" width="95" height="100" as="geometry" />
        </mxCell>
        <mxCell id="f_iQ6DCHyj7Kh1NXjfoB-92" value="&lt;font size=&quot;4&quot;&gt;办公数据&lt;/font&gt;" style="shape=datastore;whiteSpace=wrap;html=1;fillColor=#6d8764;fontColor=#ffffff;strokeColor=#3A5431;" parent="1" vertex="1">
          <mxGeometry x="933.25" y="650" width="95" height="100" as="geometry" />
        </mxCell>
        <mxCell id="f_iQ6DCHyj7Kh1NXjfoB-93" value="&lt;font size=&quot;4&quot;&gt;协同数据&lt;/font&gt;" style="shape=datastore;whiteSpace=wrap;html=1;fillColor=#6d8764;fontColor=#ffffff;strokeColor=#3A5431;" parent="1" vertex="1">
          <mxGeometry x="1113.75" y="650" width="95" height="100" as="geometry" />
        </mxCell>
        <mxCell id="lEsC4L7qXnwW0RC8Csy1-1" value="" style="rounded=0;whiteSpace=wrap;html=1;dashed=1;" vertex="1" parent="1">
          <mxGeometry x="1250" y="20" width="150" height="750" as="geometry" />
        </mxCell>
        <mxCell id="lEsC4L7qXnwW0RC8Csy1-3" value="&lt;font size=&quot;4&quot;&gt;远程仓库&lt;/font&gt;" style="rounded=1;whiteSpace=wrap;html=1;fillColor=#d5e8d4;strokeColor=#82b366;flipH=0;flipV=1;" vertex="1" parent="1">
          <mxGeometry x="1258" y="30" width="133.81" height="40" as="geometry" />
        </mxCell>
        <mxCell id="lEsC4L7qXnwW0RC8Csy1-4" value="&lt;font size=&quot;4&quot;&gt;质量审查&lt;/font&gt;" style="rounded=1;whiteSpace=wrap;html=1;fillColor=#d5e8d4;strokeColor=#82b366;flipH=0;flipV=1;" vertex="1" parent="1">
          <mxGeometry x="1258" y="145" width="133.81" height="40" as="geometry" />
        </mxCell>
        <mxCell id="lEsC4L7qXnwW0RC8Csy1-5" value="&lt;font size=&quot;4&quot;&gt;集成测试&lt;/font&gt;" style="rounded=1;whiteSpace=wrap;html=1;fillColor=#d5e8d4;strokeColor=#82b366;flipH=0;flipV=1;" vertex="1" parent="1">
          <mxGeometry x="1258" y="203" width="133.81" height="40" as="geometry" />
        </mxCell>
        <mxCell id="lEsC4L7qXnwW0RC8Csy1-6" value="&lt;font size=&quot;4&quot;&gt;CI &amp;amp; CD&lt;/font&gt;" style="rounded=1;whiteSpace=wrap;html=1;fillColor=#d5e8d4;strokeColor=#82b366;flipH=0;flipV=1;" vertex="1" parent="1">
          <mxGeometry x="1258" y="88" width="133.81" height="40" as="geometry" />
        </mxCell>
        <mxCell id="lEsC4L7qXnwW0RC8Csy1-7" value="&lt;font size=&quot;4&quot;&gt;配置中心&lt;/font&gt;" style="rounded=1;whiteSpace=wrap;html=1;fillColor=#d5e8d4;strokeColor=#82b366;flipH=0;flipV=1;" vertex="1" parent="1">
          <mxGeometry x="1258.09" y="318" width="133.81" height="40" as="geometry" />
        </mxCell>
        <mxCell id="lEsC4L7qXnwW0RC8Csy1-8" value="&lt;font size=&quot;4&quot;&gt;网络安全&lt;/font&gt;" style="rounded=1;whiteSpace=wrap;html=1;fillColor=#d5e8d4;strokeColor=#82b366;flipH=0;flipV=1;" vertex="1" parent="1">
          <mxGeometry x="1258" y="663" width="133.81" height="40" as="geometry" />
        </mxCell>
        <mxCell id="lEsC4L7qXnwW0RC8Csy1-9" value="&lt;font size=&quot;4&quot;&gt;数据安全&lt;/font&gt;" style="rounded=1;whiteSpace=wrap;html=1;fillColor=#d5e8d4;strokeColor=#82b366;flipH=0;flipV=1;" vertex="1" parent="1">
          <mxGeometry x="1258" y="605" width="133.81" height="40" as="geometry" />
        </mxCell>
        <mxCell id="lEsC4L7qXnwW0RC8Csy1-10" value="&lt;font size=&quot;4&quot;&gt;文档中心&lt;/font&gt;" style="rounded=1;whiteSpace=wrap;html=1;fillColor=#d5e8d4;strokeColor=#82b366;flipH=0;flipV=1;" vertex="1" parent="1">
          <mxGeometry x="1258" y="375" width="133.81" height="40" as="geometry" />
        </mxCell>
        <mxCell id="lEsC4L7qXnwW0RC8Csy1-11" value="&lt;font size=&quot;4&quot;&gt;应用安全&lt;/font&gt;" style="rounded=1;whiteSpace=wrap;html=1;fillColor=#d5e8d4;strokeColor=#82b366;flipH=0;flipV=1;" vertex="1" parent="1">
          <mxGeometry x="1258" y="548" width="133.81" height="40" as="geometry" />
        </mxCell>
        <mxCell id="lEsC4L7qXnwW0RC8Csy1-13" value="&lt;font size=&quot;4&quot;&gt;主机安全&lt;/font&gt;" style="rounded=1;whiteSpace=wrap;html=1;fillColor=#d5e8d4;strokeColor=#82b366;flipH=0;flipV=1;" vertex="1" parent="1">
          <mxGeometry x="1258.0900000000001" y="720" width="133.81" height="40" as="geometry" />
        </mxCell>
        <mxCell id="lEsC4L7qXnwW0RC8Csy1-14" value="&lt;font size=&quot;4&quot;&gt;信创适配&lt;/font&gt;" style="rounded=1;whiteSpace=wrap;html=1;fillColor=#d5e8d4;strokeColor=#82b366;flipH=0;flipV=1;" vertex="1" parent="1">
          <mxGeometry x="1258" y="433" width="133.81" height="40" as="geometry" />
        </mxCell>
        <mxCell id="lEsC4L7qXnwW0RC8Csy1-15" value="&lt;font size=&quot;4&quot;&gt;容器编排&lt;/font&gt;" style="rounded=1;whiteSpace=wrap;html=1;fillColor=#d5e8d4;strokeColor=#82b366;flipH=0;flipV=1;" vertex="1" parent="1">
          <mxGeometry x="1258" y="260" width="133.81" height="40" as="geometry" />
        </mxCell>
        <mxCell id="lEsC4L7qXnwW0RC8Csy1-16" value="&lt;font size=&quot;4&quot;&gt;同城灾备&lt;/font&gt;" style="rounded=1;whiteSpace=wrap;html=1;fillColor=#d5e8d4;strokeColor=#82b366;flipH=0;flipV=1;" vertex="1" parent="1">
          <mxGeometry x="1258" y="490" width="133.81" height="40" as="geometry" />
        </mxCell>
      </root>
    </mxGraphModel>
  </diagram>
</mxfile>
